<mxfile host="65bd71144e">
    <diagram id="WErqyoXXdJXGSC1n1b3z" name="Page-1">
        <mxGraphModel dx="1054" dy="779" grid="1" gridSize="10" guides="1" tooltips="1" connect="1" arrows="1" fold="1" page="1" pageScale="1" pageWidth="850" pageHeight="1100" math="0" shadow="0">
            <root>
                <mxCell id="0"/>
                <mxCell id="1" parent="0"/>
                <mxCell id="2" value="PLT" style="rounded=1;whiteSpace=wrap;html=1;fillColor=#60a917;fontColor=#ffffff;strokeColor=#2D7600;fontSize=23;" vertex="1" parent="1">
                    <mxGeometry x="120" y="320" width="400" height="60" as="geometry"/>
                </mxCell>
                <mxCell id="3" value="CLT" style="rounded=1;whiteSpace=wrap;html=1;fillColor=#1ba1e2;fontColor=#ffffff;strokeColor=#006EAF;fontSize=23;" vertex="1" parent="1">
                    <mxGeometry x="280" y="390" width="240" height="60" as="geometry"/>
                </mxCell>
                <mxCell id="4" value="CUT" style="rounded=1;whiteSpace=wrap;html=1;fillColor=#fa6800;fontColor=#000000;strokeColor=#C73500;fontSize=23;" vertex="1" parent="1">
                    <mxGeometry x="600" y="390" width="160" height="60" as="geometry"/>
                </mxCell>
                <mxCell id="14" value="" style="ellipse;whiteSpace=wrap;html=1;aspect=fixed;strokeColor=none;fillColor=#333333;" vertex="1" parent="1">
                    <mxGeometry x="542" y="416" width="8" height="8" as="geometry"/>
                </mxCell>
                <mxCell id="15" value="" style="ellipse;whiteSpace=wrap;html=1;aspect=fixed;strokeColor=none;fillColor=#333333;" vertex="1" parent="1">
                    <mxGeometry x="556" y="416" width="8" height="8" as="geometry"/>
                </mxCell>
                <mxCell id="16" value="" style="ellipse;whiteSpace=wrap;html=1;aspect=fixed;strokeColor=none;fillColor=#333333;" vertex="1" parent="1">
                    <mxGeometry x="570" y="416" width="8" height="8" as="geometry"/>
                </mxCell>
                <mxCell id="17" value="" style="endArrow=none;html=1;strokeColor=#333333;fontSize=23;endFill=0;" edge="1" parent="1">
                    <mxGeometry width="50" height="50" relative="1" as="geometry">
                        <mxPoint x="80" y="460" as="sourcePoint"/>
                        <mxPoint x="550" y="460" as="targetPoint"/>
                    </mxGeometry>
                </mxCell>
                <mxCell id="18" value="" style="endArrow=none;html=1;strokeColor=#333333;fontSize=23;" edge="1" parent="1">
                    <mxGeometry width="50" height="50" relative="1" as="geometry">
                        <mxPoint x="120" y="470" as="sourcePoint"/>
                        <mxPoint x="120" y="450" as="targetPoint"/>
                    </mxGeometry>
                </mxCell>
                <mxCell id="19" value="" style="endArrow=classic;html=1;strokeColor=#333333;fontSize=23;" edge="1" parent="1">
                    <mxGeometry width="50" height="50" relative="1" as="geometry">
                        <mxPoint x="570" y="460" as="sourcePoint"/>
                        <mxPoint x="800" y="460" as="targetPoint"/>
                    </mxGeometry>
                </mxCell>
                <mxCell id="20" value="" style="endArrow=none;html=1;strokeColor=#333333;fontSize=23;" edge="1" parent="1">
                    <mxGeometry width="50" height="50" relative="1" as="geometry">
                        <mxPoint x="557" y="470" as="sourcePoint"/>
                        <mxPoint x="562" y="450" as="targetPoint"/>
                    </mxGeometry>
                </mxCell>
                <mxCell id="21" value="t" style="text;html=1;strokeColor=none;fillColor=none;align=center;verticalAlign=middle;whiteSpace=wrap;rounded=0;fontSize=16;fontColor=#333333;" vertex="1" parent="1">
                    <mxGeometry x="760" y="470" width="30" height="10" as="geometry"/>
                </mxCell>
                <mxCell id="22" value="request start" style="text;html=1;strokeColor=none;fillColor=none;align=center;verticalAlign=middle;whiteSpace=wrap;rounded=0;fontSize=16;fontColor=#333333;" vertex="1" parent="1">
                    <mxGeometry x="70" y="473" width="100" height="10" as="geometry"/>
                </mxCell>
            </root>
        </mxGraphModel>
    </diagram>
</mxfile>